# xmcd
#
# Track frame offsets:
#	150
#	16103
#	29087
#	46414
#	64832
#	85069
#	102475
#	122583
#	137178
#	148288
#	162520
#	175407
#	190537
#
# Disc length: 2712 seconds
#
# Revision: 1
# Processed by: cddbd v1.5.2PL0 Copyright (c) Steve Scherf et al.
# Submitted via: audiograbber 1.83.01
#
DISCID=b90a960d
DTITLE=Various Artist - Cool Country Songs-Disc1
DYEAR=2006
DGENRE=Country
TTITLE0=Terri Clarke - Girls Lie Too
TTITLE1=Lone Star - No News 
TTITLE2=Sara Storer - Back Outback
TTITLE3=I'm A Roadhammer - The Road Hammers
TTITLE4=Travis Collins - Start The Car
TTITLE5=David Lee Murray - The Road You Leave Behind
TTITLE6=Dwight Yoakam - A Thousand Miles From Nowhere
TTITLE7=Reba McIntyre - Walk On
TTITLE8=Alan Jackson - Tall Tall Trees
TTITLE9=Adam Harvey - Louisiana Rendezvour
TTITLE10=Hot Apple Pie - Wer'e Making Up
TTITLE11=Gary Allen - Tough All Over
TTITLE12=Travis Tritt - The Girls Gone Wild
EXTD=Disc 1
EXTT0=
EXTT1=
EXTT2=
EXTT3=
EXTT4=
EXTT5=
EXTT6=
EXTT7=
EXTT8=
EXTT9=
EXTT10=
EXTT11=
EXTT12=
PLAYORDER=
